<?xml version="1.0" encoding="utf-8"?>
<!-- Generator: Adobe Illustrator 19.1.0, SVG Export Plug-In . SVG Version: 6.00 Build 0)  -->
<svg version="1.1" baseProfile="basic"
	 id="svg2" sodipodi:docname="twitter_bootstrap_logo.svg" inkscape:version="0.48.1 r9760" xmlns:inkscape="http://www.inkscape.org/namespaces/inkscape" xmlns:sodipodi="http://sodipodi.sourceforge.net/DTD/sodipodi-0.dtd" xmlns:svg="http://www.w3.org/2000/svg" xmlns:rdf="http://www.w3.org/1999/02/22-rdf-syntax-ns#" xmlns:dc="http://purl.org/dc/elements/1.1/" xmlns:cc="http://creativecommons.org/ns#"
	 xmlns="http://www.w3.org/2000/svg" xmlns:xlink="http://www.w3.org/1999/xlink" x="0px" y="0px" viewBox="2586 1291.7 60 60"
	 xml:space="preserve">
<path style="fill:#FFFFFF;" d="M2636.3,1291.7h-40.6c-5.3,0-9.7,4.3-9.7,9.7v40.7c0,5.3,4.3,9.7,9.7,9.7h40.6c5.4,0,9.7-4.3,9.7-9.7
	v-40.7C2646,1296,2641.6,1291.7,2636.3,1291.7z M2644.4,1341c0,5.1-4.1,9.2-9.2,9.2h-38.4c-5.1,0-9.2-4.1-9.2-9.2v-38.7
	c0-5.1,4.1-9.2,9.2-9.2h38.4c5.1,0,9.2,4.1,9.2,9.2V1341z"/>
<sodipodi:namedview  inkscape:current-layer="svg2" inkscape:window-maximized="0" inkscape:window-y="0" inkscape:window-x="0" inkscape:pageopacity="0" fit-margin-bottom="0" fit-margin-right="0" inkscape:window-height="623" inkscape:window-width="864" inkscape:pageshadow="2" pagecolor="#ffffff" bordercolor="#666666" borderopacity="1" objecttolerance="10" fit-margin-left="0" inkscape:zoom="0.24896372" fit-margin-top="0" showgrid="false" id="namedview2996" inkscape:cx="116.80866" gridtolerance="10" inkscape:cy="407.66551" guidetolerance="10">
	</sodipodi:namedview>
<g id="text3836" transform="scale(1.0052013,0.99482561)">
	<path style="fill:#FFFFFF;" d="M2617.1,1330.6c-1.1-1.6-2.7-2.7-4.8-3.3c1.6-0.6,2.9-1.6,3.7-2.8c0.9-1.3,1.3-2.8,1.3-4.7
		c0-3.5-1.2-6-3.5-7.5c-2.3-1.6-6.1-2.4-11.3-2.4H2588v37.4h16c5,0,8.7-0.9,11.1-2.7c2.4-1.8,3.7-4.5,3.7-8.1
		C2618.8,1334.2,2618.2,1332.3,2617.1,1330.6z M2597.6,1316.5h5.3c1.5,0,2.7,0.3,3.5,1c0.8,0.7,1.2,1.6,1.2,2.9c0,1.3-0.4,2.3-1.2,3
		c-0.8,0.7-1.9,1-3.5,1h-5.3V1316.5z M2607.6,1339.5c-1,0.8-2.4,1.2-4.4,1.2h-5.7v-9.8h5.7c1.9,0,3.4,0.4,4.4,1.2
		c1,0.8,1.5,2,1.5,3.6C2609.1,1337.5,2608.6,1338.7,2607.6,1339.5z"/>
</g>
</svg>
